<svg id="visual" viewBox="0 0 900 600" width="900" height="600" xmlns="http://www.w3.org/2000/svg" xmlns:xlink="http://www.w3.org/1999/xlink" version="1.1"><rect x="0" y="0" width="900" height="600" fill="#001220"></rect><defs><linearGradient id="grad1_0" x1="33.3%" y1="0%" x2="100%" y2="100%"><stop offset="20%" stop-color="#001220" stop-opacity="1"></stop><stop offset="80%" stop-color="#001220" stop-opacity="1"></stop></linearGradient></defs><defs><linearGradient id="grad2_0" x1="0%" y1="0%" x2="66.7%" y2="100%"><stop offset="20%" stop-color="#001220" stop-opacity="1"></stop><stop offset="80%" stop-color="#001220" stop-opacity="1"></stop></linearGradient></defs><g transform="translate(900, 0)"><path d="M0 378.6C-71.1 371.5 -142.3 364.5 -189.3 327.9C-236.3 291.2 -259.1 225.1 -286.7 165.5C-314.2 105.9 -346.4 53 -378.6 0L0 0Z" fill="#73e997"></path></g><g transform="translate(0, 600)"><path d="M0 -378.6C76.8 -374.8 153.6 -371 189.3 -327.9C225 -284.7 219.5 -202.2 244.2 -141C268.9 -79.8 323.7 -39.9 378.6 0L0 0Z" fill="#73e997"></path></g></svg>