<svg id="visual" viewBox="0 0 900 600" width="900" height="600" xmlns="http://www.w3.org/2000/svg" xmlns:xlink="http://www.w3.org/1999/xlink" version="1.1"><rect x="0" y="0" width="900" height="600" fill="#72befc"></rect><defs><linearGradient id="grad1_0" x1="33.3%" y1="0%" x2="100%" y2="100%"><stop offset="20%" stop-color="#72befc" stop-opacity="1"></stop><stop offset="80%" stop-color="#72befc" stop-opacity="1"></stop></linearGradient></defs><defs><linearGradient id="grad2_0" x1="0%" y1="0%" x2="66.7%" y2="100%"><stop offset="20%" stop-color="#72befc" stop-opacity="1"></stop><stop offset="80%" stop-color="#72befc" stop-opacity="1"></stop></linearGradient></defs><g transform="translate(900, 0)"><path d="M0 459.7C-32.3 365.2 -64.7 270.7 -141 244.2C-217.3 217.7 -337.7 259.2 -398.1 229.9C-458.6 200.5 -459.1 100.2 -459.7 0L0 0Z" fill="#73e997"></path></g><g transform="translate(0, 600)"><path d="M0 -459.7C33.9 -368 67.9 -276.3 144 -249.4C220.1 -222.6 338.5 -260.6 398.1 -229.9C457.8 -199.1 458.7 -99.5 459.7 0L0 0Z" fill="#73e997"></path></g></svg>